<svg xmlns="http://www.w3.org/2000/svg" viewBox="0 0 200 200" width="200" height="200">
  <!-- Fondo circular -->
  <circle cx="100" cy="100" r="95" fill="#E8F4FD" stroke="#4A90E2" stroke-width="3"/>
  
  <!-- Cabeza -->
  <ellipse cx="100" cy="90" rx="45" ry="50" fill="#FDBCB4"/>
  
  <!-- Cabello -->
  <path d="M55 70 Q100 40 145 70 Q140 50 100 45 Q60 50 55 70" fill="#2C1810"/>
  
  <!-- Anteojos -->
  <!-- Marco izquierdo -->
  <circle cx="85" cy="85" r="18" fill="none" stroke="#333" stroke-width="3"/>
  <!-- Marco derecho -->
  <circle cx="115" cy="85" r="18" fill="none" stroke="#333" stroke-width="3"/>
  <!-- Puente -->
  <line x1="103" y1="85" x2="97" y2="85" stroke="#333" stroke-width="3"/>
  <!-- Patillas -->
  <line x1="67" y1="85" x2="55" y2="80" stroke="#333" stroke-width="2"/>
  <line x1="133" y1="85" x2="145" y2="80" stroke="#333" stroke-width="2"/>
  
  <!-- Cristales de los anteojos -->
  <circle cx="85" cy="85" r="15" fill="rgba(255,255,255,0.3)"/>
  <circle cx="115" cy="85" r="15" fill="rgba(255,255,255,0.3)"/>
  
  <!-- Ojos -->
  <circle cx="85" cy="85" r="8" fill="#333"/>
  <circle cx="115" cy="85" r="8" fill="#333"/>
  <!-- Brillos en los ojos -->
  <circle cx="87" cy="83" r="2" fill="white"/>
  <circle cx="117" cy="83" r="2" fill="white"/>
  
  <!-- Nariz -->
  <ellipse cx="100" cy="95" rx="3" ry="2" fill="#F4A6A0"/>
  
  <!-- Boca sonriente -->
  <path d="M90 105 Q100 115 110 105" fill="none" stroke="#333" stroke-width="2" stroke-linecap="round"/>
  
  <!-- Mejillas sonrojadas -->
  <circle cx="70" cy="100" r="8" fill="#FFB6C1" opacity="0.6"/>
  <circle cx="130" cy="100" r="8" fill="#FFB6C1" opacity="0.6"/>
  
  <!-- Cuerpo (camisa) -->
  <rect x="70" y="130" width="60" height="50" rx="10" fill="#FFD700"/>
  
  <!-- Cuello de la camisa -->
  <rect x="85" y="125" width="30" height="15" rx="5" fill="white"/>
  
  <!-- Brazos -->
  <ellipse cx="55" cy="145" rx="12" ry="25" fill="#FDBCB4"/>
  <ellipse cx="145" cy="145" rx="12" ry="25" fill="#FDBCB4"/>
  
  <!-- Manos -->
  <circle cx="55" cy="165" r="8" fill="#FDBCB4"/>
  <circle cx="145" cy="165" r="8" fill="#FDBCB4"/>
  
  <!-- Detalles decorativos -->
  <!-- Estrellitas alrededor -->
  <text x="30" y="40" font-size="12" fill="#FFD700">✨</text>
  <text x="160" y="50" font-size="12" fill="#FFD700">✨</text>
  <text x="20" y="120" font-size="12" fill="#FFD700">✨</text>
  <text x="170" y="140" font-size="12" fill="#FFD700">✨</text>
  
  <!-- Corazoncitos -->
  <text x="40" y="180" font-size="10" fill="#FF69B4">💕</text>
  <text x="150" y="180" font-size="10" fill="#FF69B4">💕</text>
</svg>